<?xml version="1.0" encoding="utf-8"?>
<!-- Generator: Adobe Illustrator 19.0.0, SVG Export Plug-In . SVG Version: 6.00 Build 0)  -->
<svg version="1.1" id="Layer_1" xmlns:sketch="http://www.bohemiancoding.com/sketch/ns"
	 xmlns="http://www.w3.org/2000/svg" xmlns:xlink="http://www.w3.org/1999/xlink" x="0px" y="0px" viewBox="-291 383 28 28"
	 style="enable-background:new -291 383 28 28;" xml:space="preserve">
<style type="text/css">
	.st0{fill:#505050;}
	.st1{fill:#8C8C8C;}
	.st2{fill:#FFFFFF;}
	.st3{fill:#A0A0A0;}
</style>
<title></title>
<desc></desc>
<g id="Symbolicons-Color" transform="translate(-252.000000, -308.000000)">
	<g id="record-player" transform="translate(252.000000, 308.000000)">
		<path id="Fill-702" class="st0" d="M-269,395.5c0,5.8-4.7,10.5-10.5,10.5s-10.5-4.7-10.5-10.5s4.7-10.5,10.5-10.5
			S-269,389.7-269,395.5"/>
		<path id="Fill-703" class="st1" d="M-275,395.5c0,2.5-2,4.5-4.5,4.5s-4.5-2-4.5-4.5s2-4.5,4.5-4.5S-275,393-275,395.5"/>
		<path id="Fill-704" class="st0" d="M-278,395.5c0,0.8-0.7,1.5-1.5,1.5s-1.5-0.7-1.5-1.5s0.7-1.5,1.5-1.5S-278,394.7-278,395.5"/>
		<path id="Fill-705" class="st2" d="M-279,395.5c0,0.3-0.2,0.5-0.5,0.5s-0.5-0.2-0.5-0.5s0.2-0.5,0.5-0.5S-279,395.2-279,395.5"/>
		<path id="Fill-706" class="st3" d="M-271,407.5c-0.1,0-0.2,0-0.3-0.1c-0.2-0.2-0.3-0.5-0.1-0.7l4.9-6.9V390c0-0.3,0.2-0.5,0.5-0.5
			s0.5,0.2,0.5,0.5v10.2l-5.1,7.1C-270.7,407.4-270.8,407.5-271,407.5"/>
		<path id="Fill-707" class="st2" d="M-266,390.5c-0.8,0-1.5-0.7-1.5-1.5s0.7-1.5,1.5-1.5s1.5,0.7,1.5,1.5S-265.2,390.5-266,390.5"
			/>
		<path id="Fill-708" class="st0" d="M-266,388c0.6,0,1,0.4,1,1s-0.4,1-1,1s-1-0.4-1-1S-266.6,388-266,388 M-266,387
			c-1.1,0-2,0.9-2,2c0,1.1,0.9,2,2,2c1.1,0,2-0.9,2-2C-264,387.9-264.9,387-266,387"/>
		<path id="Fill-709" class="st0" d="M-269.1,406.9l-2.4-1.7l3-4.2l2.4,1.7L-269.1,406.9"/>
	</g>
</g>
</svg>
