<?xml version="1.0" encoding="iso-8859-1"?>
<!-- Generator: Adobe Illustrator 19.0.0, SVG Export Plug-In . SVG Version: 6.00 Build 0)  -->
<svg version="1.1" xmlns="http://www.w3.org/2000/svg" xmlns:xlink="http://www.w3.org/1999/xlink" x="0px" y="0px"
	 viewBox="0 0 38 60.047" style="enable-background:new 0 0 38 60.047;" xml:space="preserve">
<g id="Layer_2" style="display:none;">
	
		<rect id="XMLID_101_" x="-2.55" y="-3.509" style="display:inline;fill-rule:evenodd;clip-rule:evenodd;" width="42.5" height="66.75"/>
</g>
<g id="Layer_1">
	
		<rect id="XMLID_1_" x="2.543" y="8.417" style="fill-rule:evenodd;clip-rule:evenodd;fill:#FFFFFF;" width="4.765" height="43.007"/>
	
		<rect id="XMLID_2_" x="30.84" y="8.417" style="fill-rule:evenodd;clip-rule:evenodd;fill:#FFFFFF;" width="4.765" height="43.007"/>
	
		<rect id="XMLID_3_" x="12.729" y="26.901" style="fill-rule:evenodd;clip-rule:evenodd;fill:#FFFFFF;" width="19.079" height="3.98"/>
	<path id="XMLID_24_" style="fill-rule:evenodd;clip-rule:evenodd;fill:#FFFFFF;" d="M4.836,0.079C2.165,0.079,0,2.223,0,4.867
		s2.165,4.788,4.836,4.788c2.671,0,4.836-2.144,4.836-4.788S7.507,0.079,4.836,0.079z M4.836,6.289C4.043,6.289,3.4,5.652,3.4,4.867
		c0-0.785,0.643-1.422,1.436-1.422s1.436,0.636,1.436,1.421C6.272,5.652,5.629,6.289,4.836,6.289z"/>
	<path id="XMLID_4_" style="fill-rule:evenodd;clip-rule:evenodd;fill:#FFFFFF;" d="M33.191,50.046
		c-2.653,0-4.804,2.129-4.804,4.756c0,2.627,2.151,4.756,4.804,4.756c2.653,0,4.804-2.129,4.804-4.756
		C37.994,52.175,35.844,50.046,33.191,50.046z M33.191,56.214c-0.788,0-1.426-0.632-1.426-1.412c0-0.78,0.638-1.412,1.426-1.412
		s1.426,0.632,1.426,1.412C34.617,55.582,33.978,56.214,33.191,56.214z"/>
</g>
</svg>
