<?xml version="1.0" encoding="utf-8"?>
<!-- Generator: Adobe Illustrator 19.0.0, SVG Export Plug-In . SVG Version: 6.00 Build 0)  -->
<svg version="1.1" id="Layer_1" xmlns="http://www.w3.org/2000/svg" xmlns:xlink="http://www.w3.org/1999/xlink" x="0px" y="0px"
	 width="960px" height="560px" viewBox="0 0 960 560" style="enable-background:new 0 0 960 560;" xml:space="preserve">
<style type="text/css">
	.st0{fill-rule:evenodd;clip-rule:evenodd;fill:#FFFFFF;}
</style>
<path class="st0" d="M501.2,300.7v-36.2h-5.3v6.4v6.4h-6.3h-6.3h-6.3V271v-6.4h-6.3v29.8h6.3V289v-6.4h6.3h12.7v6.4v18.1v6.4h-37
	h-6.3v-6.4v-54.2v-6.4h6.3h37v6.4v5.3h5.3h3.2h3.2v42.5H501.2z M489.5,252.9h-30.7v54.2h30.7V289h-6.3v5.3v6.4h-12.7h-6.3v-6.4
	v-29.8v-6.4h6.3h6.3h6.3v6.4v6.4h6.3V252.9z"/>
</svg>
