<svg width="57" height="56" viewBox="0 0 57 56" fill="none" xmlns="http://www.w3.org/2000/svg">
<path d="M22.7722 4.5H22.4293L22.3058 4.81981L4.5336 50.8198L4.27081 51.5H5H17.0759H17.4253L17.5454 51.172L20.6911 42.5847H36.9319L40.1521 51.1755L40.2737 51.5H40.6203H53H53.7292L53.4664 50.8198L35.6942 4.81981L35.5707 4.5H35.2278H22.7722ZM32.9153 31.6954H24.7809L28.8481 20.6783L32.9153 31.6954Z" stroke="#1B2F6D"/>
<path d="M52.4984 4.52197H4.50146V51.4785H52.4984V4.52197Z" stroke="#1B2F6D"/>
<path d="M7.59807 1.39111H1.40491V7.65198H7.59807V1.39111Z" fill="white" stroke="#1B2F6D"/>
<path d="M55.595 1.39111H49.4019V7.65198H55.595V1.39111Z" fill="white" stroke="#1B2F6D"/>
<path d="M7.59807 48.3477H1.40491V54.6085H7.59807V48.3477Z" fill="white" stroke="#1B2F6D"/>
<path d="M55.595 48.3477H49.4019V54.6085H55.595V48.3477Z" fill="white" stroke="#1B2F6D"/>
</svg>
