<svg width="54" height="54" viewBox="0 0 54 54" fill="none" xmlns="http://www.w3.org/2000/svg">
<g clip-path="url(#clip0)">
<path d="M21.4019 3.5H21.0565L20.9342 3.82309L3.53235 49.8231L3.27627 50.5H4H15.8244H16.1762L16.295 50.1688L19.374 41.5847H35.2569L38.4088 50.1723L38.5291 50.5H38.8782H51H51.7237L51.4677 49.8231L34.0658 3.82309L33.9435 3.5H33.5981H21.4019ZM31.324 30.6954H23.3785L27.3513 19.7053L31.324 30.6954Z" stroke="white"/>
<path d="M50.5775 3.52197H3.42261V50.4785H50.5775V3.52197Z" stroke="white"/>
<path d="M6.46488 0.391113H0.380371V6.65198H6.46488V0.391113Z" fill="#152D70" stroke="white"/>
<path d="M53.6197 0.391113H47.5352V6.65198H53.6197V0.391113Z" fill="#152D70" stroke="white"/>
<path d="M6.46488 47.3477H0.380371V53.6085H6.46488V47.3477Z" fill="#152D70" stroke="white"/>
<path d="M53.6197 47.3477H47.5352V53.6085H53.6197V47.3477Z" fill="#152D70" stroke="white"/>
</g>
<defs>
<clipPath id="clip0">
<rect width="54" height="54" fill="white"/>
</clipPath>
</defs>
</svg>
